<svg xmlns="http://www.w3.org/2000/svg" xmlns:xlink="http://www.w3.org/1999/xlink" viewBox="0 0 1564.211 639.973">
  <defs>
    <style>
      .cls-1 {
        fill: #574092;
      }

      .cls-2 {
        fill: #9586cb;
      }

      .cls-3 {
        fill: #f4e4ff;
      }

      .cls-4 {
        clip-path: url(#clip-path);
      }

      .cls-5 {
        clip-path: url(#clip-path-3);
      }
    </style>
    <clipPath id="clip-path">
      <path id="Path_20" data-name="Path 20" class="cls-1" d="M0-93.176H95V-7.937H0Z" transform="translate(0 93.176)"/>
    </clipPath>
    <clipPath id="clip-path-3">
      <path id="Path_278" data-name="Path 278" class="cls-1" d="M0-59.111H58.865V-6.293H0Z" transform="translate(0 59.111)"/>
    </clipPath>
  </defs>
  <g id="Group_235" data-name="Group 235" transform="translate(-221.789 -5619.963)">
    <rect id="Rectangle_30" data-name="Rectangle 30" class="cls-2" width="1552.883" height="639.973" rx="20" transform="translate(221.789 5619.963)"/>
    <rect id="Rectangle_31" data-name="Rectangle 31" class="cls-3" width="1484.997" height="571.809" rx="10" transform="translate(256.632 5654.045)"/>
    <g id="Group_45" data-name="Group 45" transform="translate(228.629 5629.446)">
      <g id="Group_22" data-name="Group 22" class="cls-4" transform="translate(0 0)">
        <g id="Group_21" data-name="Group 21" transform="translate(0 0)">
          <path id="Path_19" data-name="Path 19" class="cls-1" d="M10.826-3.969c-34.1,6.639-40.1,12.021-47.5,42.619-7.4-30.6-13.4-35.981-47.5-42.619,34.1-6.639,40.1-12.021,47.5-42.619,7.4,30.6,13.4,35.981,47.5,42.619" transform="translate(84.174 46.588)"/>
        </g>
      </g>
    </g>
    <g id="Group_48" data-name="Group 48" transform="translate(1691 6137.135)">
      <g id="Group_22-2" data-name="Group 22" class="cls-4" transform="translate(0 0)">
        <g id="Group_21-2" data-name="Group 21" transform="translate(0 0)">
          <path id="Path_19-2" data-name="Path 19" class="cls-1" d="M10.826-3.969c-34.1,6.639-40.1,12.021-47.5,42.619-7.4-30.6-13.4-35.981-47.5-42.619,34.1-6.639,40.1-12.021,47.5-42.619,7.4,30.6,13.4,35.981,47.5,42.619" transform="translate(84.174 46.588)"/>
        </g>
      </g>
    </g>
    <g id="Group_46" data-name="Group 46" transform="translate(247.369 5728.245)">
      <g id="Group_26" data-name="Group 26" class="cls-5" transform="translate(0 0)">
        <g id="Group_25" data-name="Group 25" transform="translate(0 0)">
          <path id="Path_277" data-name="Path 277" class="cls-1" d="M5.466-3.147C-15.665.967-19.381,4.3-23.966,23.263-28.551,4.3-32.268.967-53.4-3.147-32.268-7.26-28.551-10.6-23.966-29.555-19.381-10.6-15.665-7.26,5.466-3.147" transform="translate(53.399 29.555)"/>
        </g>
      </g>
    </g>
    <g id="Group_47" data-name="Group 47" transform="translate(1709.74 6071.811)">
      <g id="Group_26-2" data-name="Group 26" class="cls-5" transform="translate(0 0)">
        <g id="Group_25-2" data-name="Group 25" transform="translate(0 0)">
          <path id="Path_277-2" data-name="Path 277" class="cls-1" d="M5.466-3.147C-15.665.967-19.381,4.3-23.966,23.263-28.551,4.3-32.268.967-53.4-3.147-32.268-7.26-28.551-10.6-23.966-29.555-19.381-10.6-15.665-7.26,5.466-3.147" transform="translate(53.399 29.555)"/>
        </g>
      </g>
    </g>
  </g>
</svg>
